<?xml version="1.0" encoding="UTF-8" standalone="no"?>
<!DOCTYPE svg PUBLIC "-//W3C//DTD SVG 1.1//EN" "http://www.w3.org/Graphics/SVG/1.1/DTD/svg11.dtd">
<svg width="100%" height="100%" viewBox="0 0 1210 177" version="1.1" xmlns="http://www.w3.org/2000/svg" xmlns:xlink="http://www.w3.org/1999/xlink" xml:space="preserve" xmlns:serif="http://www.serif.com/" style="fill-rule:evenodd;clip-rule:evenodd;stroke-linejoin:round;stroke-miterlimit:2;">
    <g transform="matrix(1,0,0,1,-545.16798,-1858.370576)">
        <g transform="matrix(0.552736,0,0,0.552736,291.046225,1298.558854)">
            <path d="M459.753,1326.105L504.868,1326.105L504.868,1217.075L569.618,1217.075C624.759,1217.075 664.862,1179.061 664.862,1124.755C664.862,1070.032 626.43,1033.688 569.618,1033.688L459.753,1033.688L459.753,1326.105ZM565.44,1178.226L504.868,1178.226L504.868,1072.538L565.44,1072.538C597.606,1072.538 618.911,1094.26 618.911,1124.755C618.911,1155.668 597.606,1178.226 565.44,1178.226Z" style="fill:rgb(149,193,200);"/>
        </g>
        <g transform="matrix(0.552736,0,0,0.552736,291.046225,1298.558854)">
            <rect x="697.446" y="1012.801" width="43.863" height="313.304" style="fill:rgb(149,193,200);"/>
        </g>
        <g transform="matrix(0.552736,0,0,0.552736,291.046225,1298.558854)">
            <path d="M877.073,1331.536C908.821,1331.536 940.152,1319.004 953.519,1289.344L953.519,1326.105L997.382,1326.105L997.382,1107.628L953.519,1107.628L953.519,1144.389C940.152,1114.73 908.821,1102.197 877.073,1102.197C818.59,1102.197 770.968,1149.82 770.968,1217.075C770.968,1284.749 818.59,1331.536 877.073,1331.536ZM885.01,1292.686C844.072,1292.686 815.666,1261.356 815.666,1217.075C815.666,1173.213 844.072,1142.3 885.01,1142.3C924.695,1142.3 954.772,1170.289 954.772,1217.075C954.772,1264.28 924.695,1292.686 885.01,1292.686Z" style="fill:rgb(149,193,200);"/>
        </g>
        <g transform="matrix(0.552736,0,0,0.552736,291.046225,1298.558854)">
            <path d="M1140.248,1331.536C1194.972,1331.536 1239.252,1298.534 1246.771,1250.494L1202.073,1250.494C1195.807,1274.723 1171.161,1291.851 1141.501,1291.851C1101.398,1291.851 1072.157,1260.52 1072.157,1216.24C1072.157,1172.377 1100.563,1142.3 1141.501,1142.3C1176.174,1142.3 1196.225,1161.934 1201.656,1184.074L1246.771,1184.074C1238.417,1135.199 1198.314,1102.197 1141.919,1102.197C1074.245,1102.197 1027.041,1151.491 1027.041,1216.24C1027.041,1280.989 1073.828,1331.536 1140.248,1331.536Z" style="fill:rgb(149,193,200);"/>
        </g>
        <g transform="matrix(0.552736,0,0,0.552736,291.046225,1298.558854)">
            <path d="M1375.852,1331.536C1430.576,1331.536 1470.261,1302.712 1481.958,1260.102L1439.349,1260.102C1430.576,1280.989 1405.93,1294.775 1377.106,1294.775C1335.75,1294.775 1309.432,1268.457 1307.761,1230.861L1484.047,1230.861L1484.047,1214.569C1484.047,1152.326 1444.362,1102.197 1375.017,1102.197C1311.939,1102.197 1263.899,1148.149 1263.899,1217.493C1263.899,1283.078 1309.014,1331.536 1375.852,1331.536ZM1440.184,1197.024L1308.597,1197.024C1311.939,1162.769 1339.927,1138.958 1375.017,1138.958C1410.107,1138.958 1437.678,1160.681 1440.184,1197.024Z" style="fill:rgb(149,193,200);"/>
        </g>
        <g transform="matrix(0.552736,0,0,0.552736,291.046225,1298.558854)">
            <path d="M1812.466,1107.628C1817.163,1107.628 1821.57,1109.9 1824.295,1113.726C1827.019,1117.552 1827.725,1122.46 1826.189,1126.898C1812.326,1166.957 1780.437,1259.099 1765.39,1302.578C1760.516,1316.66 1747.253,1326.105 1732.352,1326.105C1730.313,1326.105 1728.27,1326.105 1726.274,1326.105C1714.37,1326.105 1703.837,1318.397 1700.236,1307.051C1687.508,1266.952 1659.121,1177.515 1659.121,1177.515C1659.121,1177.515 1630.337,1260.686 1615.839,1302.578C1610.966,1316.66 1597.702,1326.105 1582.801,1326.105C1580.763,1326.105 1578.72,1326.105 1576.724,1326.105C1564.82,1326.105 1554.287,1318.397 1550.685,1307.051C1537.54,1265.637 1506.496,1167.83 1493.392,1126.542C1491.991,1122.128 1492.779,1117.311 1495.514,1113.574C1498.249,1109.837 1502.602,1107.628 1507.233,1107.628C1567.979,1107.628 1750.992,1107.628 1812.466,1107.628Z" style="fill:rgb(149,193,200);"/>
        </g>
        <g transform="matrix(0.552736,0,0,0.552736,291.046225,1298.558854)">
            <path d="M1958.18,1331.536C2026.271,1331.536 2075.982,1282.243 2075.982,1217.075C2075.982,1151.908 2027.106,1102.197 1958.597,1102.197C1890.506,1102.197 1840.795,1151.491 1840.795,1217.075C1840.795,1282.66 1890.088,1331.536 1958.18,1331.536ZM1958.18,1291.851C1915.988,1291.851 1885.493,1260.52 1885.493,1217.075C1885.493,1174.048 1915.988,1142.3 1958.18,1142.3C2000.789,1142.3 2031.284,1173.631 2031.284,1217.075C2031.284,1260.102 2000.789,1291.851 1958.18,1291.851Z" style="fill:rgb(149,193,200);"/>
        </g>
        <g transform="matrix(0.552736,0,0,0.552736,291.046225,1298.558854)">
            <path d="M2110.236,1326.105L2154.099,1326.105L2154.099,1218.746C2154.099,1178.226 2175.821,1150.237 2214.253,1150.237L2234.722,1150.237L2234.722,1107.628L2218.43,1107.628C2182.087,1107.628 2159.947,1130.604 2152.428,1153.997L2152.428,1107.628L2110.236,1107.628L2110.236,1326.105Z" style="fill:rgb(149,193,200);"/>
        </g>
        <g transform="matrix(0.552736,0,0,0.552736,291.046225,1298.558854)">
            <path d="M2403.488,1326.105L2460.719,1326.105L2354.613,1205.796L2459.883,1107.628L2401.817,1107.628L2312.422,1190.758L2312.422,1102.197L2268.559,1102.197L2268.559,1326.105L2312.422,1326.105L2312.422,1224.177L2403.488,1326.105Z" style="fill:rgb(149,193,200);"/>
        </g>
        <g transform="matrix(0.552736,0,0,0.552736,291.046225,1298.558854)">
            <path d="M2555.545,1331.536C2612.775,1331.536 2647.448,1303.129 2647.448,1260.52C2647.448,1176.555 2514.189,1209.556 2514.189,1164.023C2514.189,1148.149 2530.063,1136.87 2556.381,1136.87C2586.04,1136.87 2600.243,1150.237 2601.496,1167.782L2640.764,1167.782C2638.675,1128.933 2610.269,1102.197 2557.634,1102.197C2506.252,1102.197 2473.251,1127.262 2473.251,1166.529C2473.251,1248.406 2604.838,1213.734 2604.838,1263.444C2604.838,1282.66 2586.458,1295.61 2555.963,1295.61C2526.721,1295.61 2507.923,1284.749 2505.417,1261.356L2464.478,1261.356C2467.402,1302.294 2498.733,1331.536 2555.545,1331.536Z" style="fill:rgb(149,193,200);"/>
        </g>
    </g>
</svg>
